<svg width="32" height="32" viewBox="0 0 32 32" fill="none" xmlns="http://www.w3.org/2000/svg">
  <!-- Solid Black Background (#0a0a0b matches app background) -->
  <rect width="32" height="32" rx="8" fill="#0a0a0b"/>
  
  <!-- border-emerald-500/20 -->
  <rect x="0.5" y="0.5" width="31" height="31" rx="7.5" stroke="#10B981" stroke-opacity="0.2" stroke-width="1"/>
  
  <!-- Lucide Brain Icon (w-5 h-5 in w-8 container -> 20px in 32px box) -->
  <g transform="translate(6, 6)">
    <path d="M9.5 2a3 3 0 1 0-5.997.125 4 4 0 0 0-2.526 5.77 4 4 0 0 0 .52 8.105 5 5 0 0 0 7.915 1.155A5 5 0 0 0 17.418 16a4 4 0 0 0 .52-8.105 4 4 0 0 0-2.526-5.77A3 3 0 1 0 9.5 2Z" 
          stroke="#10B981" stroke-width="2" stroke-linecap="round" stroke-linejoin="round" />
    <path d="M9.5 2v15" stroke="#10B981" stroke-width="2" stroke-linecap="round" stroke-linejoin="round" />
    <path d="M9.5 6c0 2.5 2.5 2.5 2.5 5" stroke="#10B981" stroke-width="2" stroke-linecap="round" stroke-linejoin="round" />
    <path d="M9.5 6c0 2.5-2.5 2.5-2.5 5" stroke="#10B981" stroke-width="2" stroke-linecap="round" stroke-linejoin="round" />
    <path d="M9.5 11c0 2.5 2.5 2.5 2.5 5" stroke="#10B981" stroke-width="2" stroke-linecap="round" stroke-linejoin="round" />
    <path d="M9.5 11c0 2.5-2.5 2.5-2.5 5" stroke="#10B981" stroke-width="2" stroke-linecap="round" stroke-linejoin="round" />
  </g>
</svg>
